Coordinates
version=1
nRows=13
nColumns=40
inDegrees=yes

Units are S.I. units (second, meters, Newtons, ...)
Angles are in degrees.

endheader
time	pelvis_tilt	pelvis_list	pelvis_rotation	pelvis_tx	pelvis_ty	pelvis_tz	hip_flexion_r	hip_adduction_r	hip_rotation_r	knee_angle_r	knee_angle_r_beta	ankle_angle_r	subtalar_angle_r	mtp_angle_r	hip_flexion_l	hip_adduction_l	hip_rotation_l	knee_angle_l	knee_angle_l_beta	ankle_angle_l	subtalar_angle_l	mtp_angle_l	lumbar_extension	lumbar_bending	lumbar_rotation	arm_flex_r	arm_add_r	arm_rot_r	elbow_flex_r	pro_sup_r	wrist_flex_r	wrist_dev_r	arm_flex_l	arm_add_l	arm_rot_l	elbow_flex_l	pro_sup_l	wrist_flex_l	wrist_dev_l
     24.34864286	     -4.41985435	     -5.65155992	      6.58904673	      0.86354043	      0.91824598	      0.48236174	     -1.66926353	      4.90134344	    -17.95801067	      9.13739584	      9.13739584	     16.31520149	      2.52445095	     -5.48190771	     31.56039583	     -6.02974302	     -0.22187924	     23.29526279	     23.29526279	      4.49171543	     -9.14847045	      6.17855311	     -7.23660344	      5.33191270	      4.01312333	     45.66104034	    -17.26775208	     -0.78174678	    103.64510638	     44.25173746	      0.00000000	      0.00000000	    -13.02732240	     -6.91231145	      2.12403881	     27.95232405	     44.75050178	      0.00000000	      0.00000000
     24.36228571	     -4.50202174	     -5.68983821	      6.46091909	      0.86495190	      0.91717575	      0.48038470	     -2.10156564	      4.80557298	    -17.77725036	      9.27806231	      9.27806231	     16.65263852	      2.57202229	     -5.51484836	     31.18356191	     -5.96763312	     -0.14351904	     23.79895171	     23.79895171	      4.40234628	     -9.38810868	      6.10355743	     -6.91311053	      5.27901352	      4.08698780	     45.69998730	    -17.11193021	     -0.68759412	    103.79564074	     44.24569225	      0.00000000	      0.00000000	    -12.91303545	     -6.94424702	      2.10784268	     28.04245111	     44.75630619	      0.00000000	      0.00000000
     24.37592857	     -4.44494820	     -5.66799976	      6.23637173	      0.86620143	      0.91645153	      0.47842078	     -2.54521768	      4.59506121	    -17.56570623	      9.66808138	      9.66808138	     16.92296047	      2.59053175	     -5.43303383	     30.86619241	     -5.88563664	     -0.00514189	     24.65317834	     24.65317834	      4.51359835	     -9.99553984	      5.85047216	     -6.91859365	      5.06553520	      4.20300531	     45.59553774	    -16.78560732	     -0.47263766	    103.99051025	     44.23521295	      0.00000000	      0.00000000	    -12.62043071	     -6.99723529	      2.07910521	     28.21832771	     44.76837153	      0.00000000	      0.00000000
     24.38957143	     -4.55002492	     -5.67959550	      6.09673195	      0.86709562	      0.91578243	      0.47607372	     -2.49168205	      4.28991554	    -17.41519258	     10.65666636	     10.65666636	     17.47961700	      2.39923056	     -4.93143653	     30.68768071	     -5.68667320	      0.42912169	     25.25893053	     25.25893053	      4.50166424	    -10.94015154	      5.46339407	     -6.77263502	      4.98193418	      4.16073990	     45.51032202	    -16.61695476	     -0.23759166	    104.30427007	     44.22889404	      0.00000000	      0.00000000	    -12.34346409	     -7.00388070	      1.99083050	     28.49021871	     44.79750369	      0.00000000	      0.00000000
     24.40321429	     -4.63177589	     -5.53342649	      5.93593648	      0.86785431	      0.91566554	      0.47355566	     -2.45968495	      3.79498426	    -17.21519282	     11.64985220	     11.64985220	     17.92909081	      2.20370423	     -4.18172109	     30.36243647	     -5.36950844	      0.63837017	     25.62131610	     25.62131610	      4.60485438	    -11.69443589	      5.02654072	     -6.67834167	      4.72256264	      4.20469681	     45.10427095	    -16.47116785	     -0.07570604	    104.04052370	     44.24682983	      0.00000000	      0.00000000	    -11.75435568	     -7.05304754	      1.88719021	     28.66061994	     44.83989291	      0.00000000	      0.00000000
     24.41685714	     -4.57631821	     -5.46740668	      5.83025253	      0.86869921	      0.91607032	      0.47088157	     -2.79053890	      3.47279148	    -17.06830562	     12.15672164	     12.15672164	     17.89349474	      2.11860155	     -4.08077667	     29.94904203	     -5.17800000	      0.74775819	     26.04940020	     26.04940020	      5.05275614	    -12.01424563	      4.75739354	     -6.76276304	      4.60911060	      4.15227258	     44.54137599	    -16.18832734	      0.10643285	    103.80772478	     44.24890810	      0.00000000	      0.00000000	    -11.08472155	     -7.10537701	      1.87386366	     28.83803897	     44.85603767	      0.00000000	      0.00000000
     24.43050000	     -4.69334772	     -5.28971519	      5.64294874	      0.86907991	      0.91646248	      0.46807595	     -2.38160502	      2.82476150	    -16.82248229	     13.71588071	     13.71588071	     18.09330677	      1.58346261	     -3.89560653	     29.65134463	     -4.84675603	      0.80201811	     26.31697632	     26.31697632	      5.44093274	    -12.57253302	      4.53352782	     -6.71764685	      4.34363923	      4.21134228	     43.98602768	    -16.06700934	      0.12410152	    102.95535638	     44.28416360	      0.00000000	      0.00000000	    -10.23726988	     -7.13674030	      1.84133276	     28.78747347	     44.88755526	      0.00000000	      0.00000000
     24.44414286	     -4.74454320	     -5.16440929	      5.48679431	      0.86947687	      0.91719978	      0.46514703	     -2.09071180	      2.26041777	    -16.56615593	     15.14326951	     15.14326951	     18.11078262	      1.09606898	     -3.81644133	     29.24897274	     -4.57757184	      0.82959730	     26.49962369	     26.49962369	      5.91081959	    -12.95524945	      4.38415523	     -6.71379683	      4.18421794	      4.19465331	     43.24799945	    -15.82964486	      0.18667942	    101.97528543	     44.32194034	      0.00000000	      0.00000000	     -9.25435863	     -7.16591661	      1.81436211	     28.70262557	     44.92150739	      0.00000000	      0.00000000
     24.45778571	     -4.75098684	     -5.03837320	      5.29355522	      0.86977513	      0.91820024	      0.46218754	     -1.72281978	      1.66295591	    -16.30421838	     16.76570277	     16.76570277	     17.94290864	      0.54595995	     -3.99887727	     28.74771975	     -4.35694137	      0.69885781	     26.60204506	     26.60204506	      6.42965732	    -13.14241698	      4.25760639	     -6.80247752	      4.03303263	      4.19701956	     42.35147713	    -15.62858634	      0.27587953	    100.91100156	     44.35782646	      0.00000000	      0.00000000	     -8.24453828	     -7.21109592	      1.78706969	     28.72708572	     44.95246138	      0.00000000	      0.00000000
     24.47142857	     -4.60078808	     -5.19230393	      5.22081614	      0.87014606	      0.91961081	      0.45917913	     -1.68203505	      1.44090689	    -16.26706468	     17.99327279	     17.99327279	     17.45571501	      0.23843419	     -4.11553538	     28.07899485	     -4.39664177	      0.76313693	     26.61898006	     26.61898006	      6.96741640	    -13.20737565	      4.10042881	     -7.09522949	      4.24322128	      4.04144303	     41.26698408	    -15.28619241	      0.51540105	    100.27205568	     44.36816478	      0.00000000	      0.00000000	     -7.17782746	     -7.24436207	      1.78152253	     29.01715589	     44.97340657	      0.00000000	      0.00000000
     24.48507143	     -4.86076537	     -4.82905939	      4.83586222	      0.87001097	      0.92025912	      0.45625080	     -0.29603445	      0.35629022	    -15.73342461	     20.99310048	     20.99310048	     17.16854785	     -1.00688666	     -4.98600839	     27.67919232	     -4.02240160	      0.13058219	     26.47720202	     26.47720202	      7.43767930	    -13.07177301	      3.99266784	     -6.88864856	      3.80172915	      4.29820824	     40.24326191	    -15.32023443	      0.44217865	     98.34514731	     44.43534789	      0.00000000	      0.00000000	     -6.06993086	     -7.35614988	      1.72733523	     29.07393284	     45.00907318	      0.00000000	      0.00000000
     24.49871429	     -4.96078226	     -4.85796458	      4.59950650	      0.86989071	      0.92116389	      0.45341756	      0.69556557	     -0.10497325	    -15.12958071	     23.34434462	     23.34434462	     15.94910255	     -2.71152846	     -6.95211314	     27.22860398	     -4.00263310	     -0.14313999	     26.43547284	     26.43547284	      8.01233234	    -12.88888748	      4.06690258	     -6.77697023	      3.84818159	      3.97816491	     39.51088540	    -14.50437146	      0.35145061	     95.34610747	     44.55903615	      0.00000000	      0.00000000	     -4.89061676	     -7.39098177	      1.52971656	     28.64247618	     45.09223713	      0.00000000	      0.00000000
     24.51235714	     -5.01066402	     -4.74228443	      4.30346902	      0.86971002	      0.92211456	      0.45057280	      1.90020550	     -0.88086935	    -14.82863154	     26.27768938	     26.27768938	     15.16223196	     -3.70382977	     -7.79517676	     26.58238317	     -3.88461607	     -0.66106445	     26.18382672	     26.18382672	      8.45841072	    -12.55576085	      3.88270728	     -6.87396463	      3.73011739	      4.03146665	     38.16156377	    -14.43666387	      0.56849443	     94.08684200	     44.59338993	      0.00000000	      0.00000000	     -3.77973726	     -7.54118247	      1.39426526	     29.11986192	     45.13768498	      0.00000000	      0.00000000
